FILE "stream.wav" WAVE
  TRACK 24 AUDIO
    REM This is allowed by CDRWIN.
    INDEX 01 00:00:00
  TRACK 25 AUDIO
    REM But subsequent tracks have to follow.
    INDEX 01 00:00:01
  TRACK 26 AUDIO
    INDEX 01 00:00:02
